<svg width="98" height="98" viewBox="0 0 98 98" fill="none" xmlns="http://www.w3.org/2000/svg">
<g filter="url(#filter0_d_24_12)">
<path d="M4 30C4 13.4315 17.4315 0 34 0H64C80.5685 0 94 13.4315 94 30V60C94 76.5685 80.5685 90 64 90H34C17.4315 90 4 76.5685 4 60V30Z" fill="#CED2C2"/>
</g>
<path d="M74 45C74 58.8071 62.8071 70 49 70C35.1929 70 24 58.8071 24 45C24 31.1929 35.1929 20 49 20C62.8071 20 74 31.1929 74 45Z" fill="#D9D9D9"/>
<rect x="37" y="33" width="25" height="25" fill="white"/>
<defs>
<filter id="filter0_d_24_12" x="0" y="0" width="98" height="98" filterUnits="userSpaceOnUse" color-interpolation-filters="sRGB">
<feFlood flood-opacity="0" result="BackgroundImageFix"/>
<feColorMatrix in="SourceAlpha" type="matrix" values="0 0 0 0 0 0 0 0 0 0 0 0 0 0 0 0 0 0 127 0" result="hardAlpha"/>
<feOffset dy="4"/>
<feGaussianBlur stdDeviation="2"/>
<feComposite in2="hardAlpha" operator="out"/>
<feColorMatrix type="matrix" values="0 0 0 0 0 0 0 0 0 0 0 0 0 0 0 0 0 0 0.25 0"/>
<feBlend mode="normal" in2="BackgroundImageFix" result="effect1_dropShadow_24_12"/>
<feBlend mode="normal" in="SourceGraphic" in2="effect1_dropShadow_24_12" result="shape"/>
</filter>
</defs>
</svg>
