<svg width="765" height="853" viewBox="0 0 765 853" fill="none" xmlns="http://www.w3.org/2000/svg">
<g filter="url(#filter0_d_26_26)">
<path d="M125 129.118C125 119.075 128.778 109.4 135.583 102.014L158.548 77.088C163.426 71.7942 169.641 67.9147 176.539 65.8585L202.934 57.9909C212.617 55.1044 220.85 48.66 225.977 39.9525L237.898 19.7051C245.087 7.49554 258.198 0 272.367 0H292.5H322.882C339.505 0 354.396 10.2812 360.287 25.8257L368.5 47.5L391.191 93.6469C402.42 116.484 431.838 123.167 451.832 107.424L465.612 96.5731C472.665 91.0196 481.381 88 490.358 88H501.922C520.437 88 536.532 75.2938 540.83 57.2847L547.17 30.7153C551.468 12.7062 567.563 0 586.078 0H632H670.602C680.212 0 689.5 3.45941 696.768 9.74548L699.127 11.7859C702.355 14.5773 705.115 17.8672 707.303 21.5308L719.842 42.5257C723.545 48.7261 725.5 55.8133 725.5 63.0353V79.426C725.5 90.6254 730.195 101.312 738.444 108.887L743.108 113.171C747.642 117.334 751.153 122.487 753.369 128.229L758.317 141.048C760.09 145.643 761 150.526 761 155.451V793C761 815.091 743.091 833 721 833H668.482C663.591 833 658.798 831.633 654.643 829.054C649.384 825.79 643.141 824.49 637.016 825.383L622.5 827.5L616.53 828.648C611.891 829.54 607.119 829.49 602.5 828.5L602.259 828.452C599.098 827.82 596.025 826.808 593.107 825.438L577.003 817.879C574.342 816.63 571.552 815.678 568.684 815.041L561.678 813.484C557.258 812.502 552.703 812.277 548.208 812.82L504.51 818.094C499.547 818.693 494.741 820.216 490.339 822.587L479.879 828.219C474.051 831.357 467.535 833 460.915 833H158.618C129.655 833 110.292 803.173 122.082 776.718L191.983 619.867C196.752 609.165 196.59 596.91 191.538 586.338L149.484 498.338C146.863 492.852 143.025 488.035 138.262 484.255L68.3854 428.79C66.4659 427.267 64.6904 425.57 63.0814 423.721L49.4406 408.049C44.6108 402.5 38.1116 398.667 30.9183 397.125L30.5634 397.049C20.1562 394.819 11.443 387.747 7.12026 378.021C3.8211 370.597 3.35026 362.224 5.79642 354.478L10.4236 339.825C12.7575 332.435 17.1883 325.881 23.1773 320.961L29.3463 315.894C37.4555 309.233 42.6221 299.652 43.7323 289.216L47.8027 250.954C48.8921 240.715 53.8884 231.289 61.7517 224.641L103.638 189.225C108.477 185.134 112.274 179.951 114.718 174.104L121.907 156.902C123.949 152.016 125 146.773 125 141.478V129.118Z" fill="#90CF8E"/>
</g>
<g filter="url(#filter1_d_26_26)">
<path d="M335 834L423.5 778L446.5 737L446.5 691L413.5 637L368 614L318.5 559.5L299 496L299 455L318.5 419L344 373L383 336L453 299.5L494 276L511.5 232.5L511.5 179L464 103.5" stroke="white" stroke-width="11" stroke-linecap="round" stroke-dasharray="22 22"/>
</g>
<defs>
<filter id="filter0_d_26_26" x="0.251343" y="0" width="764.749" height="841" filterUnits="userSpaceOnUse" color-interpolation-filters="sRGB">
<feFlood flood-opacity="0" result="BackgroundImageFix"/>
<feColorMatrix in="SourceAlpha" type="matrix" values="0 0 0 0 0 0 0 0 0 0 0 0 0 0 0 0 0 0 127 0" result="hardAlpha"/>
<feOffset dy="4"/>
<feGaussianBlur stdDeviation="2"/>
<feComposite in2="hardAlpha" operator="out"/>
<feColorMatrix type="matrix" values="0 0 0 0 0 0 0 0 0 0 0 0 0 0 0 0 0 0 0.25 0"/>
<feBlend mode="normal" in2="BackgroundImageFix" result="effect1_dropShadow_26_26"/>
<feBlend mode="normal" in="SourceGraphic" in2="effect1_dropShadow_26_26" result="shape"/>
</filter>
<filter id="filter1_d_26_26" x="289.5" y="97.9993" width="231.5" height="749.502" filterUnits="userSpaceOnUse" color-interpolation-filters="sRGB">
<feFlood flood-opacity="0" result="BackgroundImageFix"/>
<feColorMatrix in="SourceAlpha" type="matrix" values="0 0 0 0 0 0 0 0 0 0 0 0 0 0 0 0 0 0 127 0" result="hardAlpha"/>
<feOffset dy="4"/>
<feGaussianBlur stdDeviation="2"/>
<feComposite in2="hardAlpha" operator="out"/>
<feColorMatrix type="matrix" values="0 0 0 0 0 0 0 0 0 0 0 0 0 0 0 0 0 0 0.25 0"/>
<feBlend mode="normal" in2="BackgroundImageFix" result="effect1_dropShadow_26_26"/>
<feBlend mode="normal" in="SourceGraphic" in2="effect1_dropShadow_26_26" result="shape"/>
</filter>
</defs>
</svg>
