<svg width="278" height="273" viewBox="0 0 278 273" fill="none" xmlns="http://www.w3.org/2000/svg">
<circle cx="10" cy="10" r="10" fill="#35455D"/>
<circle cx="268" cy="10" r="10" fill="#35455D"/>
<circle cx="182" cy="10" r="10" fill="#35455D"/>
<circle cx="96" cy="10" r="10" fill="#35455D"/>
<circle cx="10" cy="262" r="10" fill="#35455D"/>
<circle cx="182" cy="262" r="10" fill="#35455D"/>
<circle cx="96" cy="262" r="10" fill="#35455D"/>
<circle cx="10" cy="94" r="10" fill="#35455D"/>
<circle cx="268" cy="94" r="10" fill="#35455D"/>
<circle cx="96" cy="94" r="10" fill="#35455D"/>
<circle cx="10" cy="178" r="10" fill="#35455D"/>
<circle cx="268" cy="178" r="10" fill="#35455D"/>
<circle cx="182" cy="178" r="10" fill="#35455D"/>
<circle cx="96" cy="178" r="10" fill="#35455D"/>
<path d="M267 10.5H269V8.5H267V10.5ZM267 96V98H269V96H267ZM181.5 96V94H180.689L180.107 94.5645L181.5 96ZM98 177L96.6074 175.564L93.0659 179H98V177ZM181.5 177V179L182.364 175.196L181.5 177ZM12.5 96L13.3644 94.1965L10.5 92.8236V96H12.5ZM12.5 261H10.5V263H12.5V261ZM267 261L247 249.453V272.547L267 261ZM12.5 12.5H98V8.5H12.5V12.5ZM98 12.5H181.5V8.5H98V12.5ZM181.5 12.5H267V8.5H181.5V12.5ZM265 10.5V96H269V10.5H265ZM267 94H181.5V98H267V94ZM180.107 94.5645L96.6074 175.564L99.3926 178.436L182.893 97.4355L180.107 94.5645ZM98 179H181.5V175H98V179ZM182.364 175.196L13.3644 94.1965L11.6356 97.8035L180.636 178.804L182.364 175.196ZM10.5 96V177H14.5V96H10.5ZM10.5 177V261H14.5V177H10.5ZM12.5 263H249V259H12.5V263Z" fill="black"/>
<circle cx="268" cy="262" r="10" fill="#35455D"/>
<circle cx="182" cy="94" r="10" fill="#35455D"/>
</svg>
