<svg width="619" height="113" viewBox="0 0 619 113" fill="none" xmlns="http://www.w3.org/2000/svg">
<g filter="url(#filter0_d_13_86)">
<path d="M4 30C4 13.4315 17.4315 0 34 0H585C601.569 0 615 13.4315 615 30V73C615 89.5685 601.569 103 585 103H34C17.4315 103 4 89.5685 4 73V30Z" fill="#F4F4F4"/>
<path d="M5 30C5 13.9837 17.9837 1 34 1H585C601.016 1 614 13.9837 614 30V73C614 89.0163 601.016 102 585 102H34C17.9838 102 5 89.0163 5 73V30Z" stroke="black" stroke-width="2"/>
</g>
<defs>
<filter id="filter0_d_13_86" x="0" y="0" width="619" height="113" filterUnits="userSpaceOnUse" color-interpolation-filters="sRGB">
<feFlood flood-opacity="0" result="BackgroundImageFix"/>
<feColorMatrix in="SourceAlpha" type="matrix" values="0 0 0 0 0 0 0 0 0 0 0 0 0 0 0 0 0 0 127 0" result="hardAlpha"/>
<feOffset dy="6"/>
<feGaussianBlur stdDeviation="2"/>
<feComposite in2="hardAlpha" operator="out"/>
<feColorMatrix type="matrix" values="0 0 0 0 0 0 0 0 0 0 0 0 0 0 0 0 0 0 0.25 0"/>
<feBlend mode="normal" in2="BackgroundImageFix" result="effect1_dropShadow_13_86"/>
<feBlend mode="normal" in="SourceGraphic" in2="effect1_dropShadow_13_86" result="shape"/>
</filter>
</defs>
</svg>
